{
	"asset":{
		"generator":"Khronos glTF Blender I/O v4.3.47",
		"version":"2.0"
	},
	"extensionsUsed":[
		"EXT_texture_webp",
		"KHR_texture_transform"
	],
	"extensionsRequired":[
		"EXT_texture_webp",
		"KHR_texture_transform"
	],
	"scene":0,
	"scenes":[
		{
			"name":"Scene",
			"nodes":[
				0,
				2,
				4,
				5,
				6
			]
		}
	],
	"nodes":[
		{
			"mesh":0,
			"name":"SoccerFieldOuter"
		},
		{
			"mesh":1,
			"name":"SoccerGate"
		},
		{
			"children":[
				1
			],
			"mesh":2,
			"name":"SoccerGateNet",
			"translation":[
				0,
				-0.3174908757209778,
				-1.17231285572052
			]
		},
		{
			"mesh":3,
			"name":"SoccerGate02"
		},
		{
			"children":[
				3
			],
			"mesh":2,
			"name":"SoccerGateNet02",
			"rotation":[
				0,
				1,
				0,
				7.549790126404332e-08
			],
			"translation":[
				0,
				-0.3174908757209778,
				1.17231285572052
			]
		},
		{
			"mesh":4,
			"name":"SoccerFieldStripe"
		},
		{
			"mesh":5,
			"name":"SoccerField"
		}
	],
	"materials":[
		{
			"doubleSided":true,
			"name":"SoccerFieldOuterMaterial",
			"pbrMetallicRoughness":{
				"baseColorTexture":{
					"index":0
				},
				"metallicFactor":0,
				"roughnessFactor":0.5
			}
		},
		{
			"doubleSided":true,
			"name":"SoccerGateMaterial",
			"pbrMetallicRoughness":{
				"baseColorFactor":[
					0.5089511871337891,
					0.5089511871337891,
					0.5089511871337891,
					1
				],
				"metallicFactor":0,
				"roughnessFactor":0.5
			}
		},
		{
			"alphaMode":"BLEND",
			"doubleSided":true,
			"name":"SoccerGateNetMaterial",
			"pbrMetallicRoughness":{
				"baseColorFactor":[
					0.800000011920929,
					0.800000011920929,
					0.800000011920929,
					1
				],
				"baseColorTexture":{
					"extensions":{
						"KHR_texture_transform":{
							"offset":[
								0,
								-49
							],
							"scale":[
								50,
								50
							]
						}
					},
					"index":1
				},
				"metallicFactor":0,
				"roughnessFactor":0.5
			}
		},
		{
			"alphaMode":"BLEND",
			"doubleSided":true,
			"name":"SoccerFieldStripeMaterial",
			"pbrMetallicRoughness":{
				"baseColorTexture":{
					"extensions":{
						"KHR_texture_transform":{
							"offset":[
								0.44999998807907104,
								0
							]
						}
					},
					"index":2
				},
				"metallicFactor":0,
				"roughnessFactor":0.5
			}
		},
		{
			"doubleSided":true,
			"name":"SoccerFieldOuterMaterial.001",
			"pbrMetallicRoughness":{
				"baseColorTexture":{
					"index":3
				},
				"metallicFactor":0,
				"roughnessFactor":0.5
			}
		}
	],
	"meshes":[
		{
			"name":"SoccerFieldOuterMesh",
			"primitives":[
				{
					"attributes":{
						"POSITION":0,
						"NORMAL":1,
						"TEXCOORD_0":2
					},
					"indices":3,
					"material":0
				}
			]
		},
		{
			"name":"SoccerGateMesh",
			"primitives":[
				{
					"attributes":{
						"POSITION":4,
						"NORMAL":5,
						"TEXCOORD_0":6
					},
					"indices":7,
					"material":1
				}
			]
		},
		{
			"name":"SoccerGateNetMesh",
			"primitives":[
				{
					"attributes":{
						"POSITION":8,
						"NORMAL":9,
						"TEXCOORD_0":10
					},
					"indices":11,
					"material":2
				}
			]
		},
		{
			"name":"SoccerGateMesh02",
			"primitives":[
				{
					"attributes":{
						"POSITION":12,
						"NORMAL":13,
						"TEXCOORD_0":14
					},
					"indices":15,
					"material":1
				}
			]
		},
		{
			"name":"SoccerFieldStripeMesh",
			"primitives":[
				{
					"attributes":{
						"POSITION":16,
						"NORMAL":17,
						"TEXCOORD_0":18
					},
					"indices":19,
					"material":3
				}
			]
		},
		{
			"name":"SoccerFieldMesh",
			"primitives":[
				{
					"attributes":{
						"POSITION":20,
						"NORMAL":21,
						"TEXCOORD_0":22
					},
					"indices":23,
					"material":4
				}
			]
		}
	],
	"textures":[
		{
			"extensions":{
				"EXT_texture_webp":{
					"source":0
				}
			},
			"sampler":0
		},
		{
			"extensions":{
				"EXT_texture_webp":{
					"source":1
				}
			},
			"sampler":0
		},
		{
			"extensions":{
				"EXT_texture_webp":{
					"source":2
				}
			},
			"sampler":0
		},
		{
			"extensions":{
				"EXT_texture_webp":{
					"source":3
				}
			},
			"sampler":0
		}
	],
	"images":[
		{
			"mimeType":"image/webp",
			"name":"STADIUM",
			"uri":"STADIUM.webp"
		},
		{
			"mimeType":"image/webp",
			"name":"net",
			"uri":"net.webp"
		},
		{
			"mimeType":"image/webp",
			"name":"SoccerFieldStripeTexture-SoccerFieldStripeTextureAlpha",
			"uri":"SoccerFieldStripeTexture-SoccerFieldStripeTextureAlpha.webp"
		},
		{
			"mimeType":"image/webp",
			"name":"FIELD",
			"uri":"FIELD.webp"
		}
	],
	"accessors":[
		{
			"bufferView":0,
			"componentType":5126,
			"count":11111,
			"max":[
				0.9994924664497375,
				0.006844622083008289,
				1.5522902011871338
			],
			"min":[
				-0.9994924664497375,
				-0.939298152923584,
				-1.5522902011871338
			],
			"type":"VEC3"
		},
		{
			"bufferView":1,
			"componentType":5126,
			"count":11111,
			"type":"VEC3"
		},
		{
			"bufferView":2,
			"componentType":5126,
			"count":11111,
			"type":"VEC2"
		},
		{
			"bufferView":3,
			"componentType":5123,
			"count":36984,
			"type":"SCALAR"
		},
		{
			"bufferView":4,
			"componentType":5126,
			"count":195,
			"max":[
				0.3114379346370697,
				0.24864351749420166,
				0.09609933942556381
			],
			"min":[
				-0.31143924593925476,
				-0.007000000681728125,
				-0.09609933942556381
			],
			"type":"VEC3"
		},
		{
			"bufferView":5,
			"componentType":5126,
			"count":195,
			"type":"VEC3"
		},
		{
			"bufferView":6,
			"componentType":5126,
			"count":195,
			"type":"VEC2"
		},
		{
			"bufferView":7,
			"componentType":5123,
			"count":792,
			"type":"SCALAR"
		},
		{
			"bufferView":8,
			"componentType":5126,
			"count":16,
			"max":[
				0.3044392466545105,
				0.2436937689781189,
				0.08909934014081955
			],
			"min":[
				-0.3044392466545105,
				0,
				-0.08909934014081955
			],
			"type":"VEC3"
		},
		{
			"bufferView":9,
			"componentType":5126,
			"count":16,
			"type":"VEC3"
		},
		{
			"bufferView":10,
			"componentType":5126,
			"count":16,
			"type":"VEC2"
		},
		{
			"bufferView":11,
			"componentType":5123,
			"count":24,
			"type":"SCALAR"
		},
		{
			"bufferView":12,
			"componentType":5126,
			"count":195,
			"max":[
				0.3114379346370697,
				0.24864351749420166,
				0.09609933942556381
			],
			"min":[
				-0.31143924593925476,
				-0.007000000681728125,
				-0.09609933942556381
			],
			"type":"VEC3"
		},
		{
			"bufferView":13,
			"componentType":5126,
			"count":195,
			"type":"VEC3"
		},
		{
			"bufferView":14,
			"componentType":5126,
			"count":195,
			"type":"VEC2"
		},
		{
			"bufferView":15,
			"componentType":5123,
			"count":792,
			"type":"SCALAR"
		},
		{
			"bufferView":16,
			"componentType":5126,
			"count":186,
			"max":[
				0.7545524835586548,
				-0.1973472237586975,
				1.307350993156433
			],
			"min":[
				-0.7545524835586548,
				-0.3182230591773987,
				-1.307350993156433
			],
			"type":"VEC3"
		},
		{
			"bufferView":17,
			"componentType":5126,
			"count":186,
			"type":"VEC3"
		},
		{
			"bufferView":18,
			"componentType":5126,
			"count":186,
			"type":"VEC2"
		},
		{
			"bufferView":19,
			"componentType":5123,
			"count":552,
			"type":"SCALAR"
		},
		{
			"bufferView":20,
			"componentType":5126,
			"count":92,
			"max":[
				0.7545524835586548,
				-0.3182230591773987,
				1.307350993156433
			],
			"min":[
				-0.7545524835586548,
				-0.3182230591773987,
				-1.307350993156433
			],
			"type":"VEC3"
		},
		{
			"bufferView":21,
			"componentType":5126,
			"count":92,
			"type":"VEC3"
		},
		{
			"bufferView":22,
			"componentType":5126,
			"count":92,
			"type":"VEC2"
		},
		{
			"bufferView":23,
			"componentType":5123,
			"count":270,
			"type":"SCALAR"
		}
	],
	"bufferViews":[
		{
			"buffer":0,
			"byteLength":133332,
			"byteOffset":0,
			"target":34962
		},
		{
			"buffer":0,
			"byteLength":133332,
			"byteOffset":133332,
			"target":34962
		},
		{
			"buffer":0,
			"byteLength":88888,
			"byteOffset":266664,
			"target":34962
		},
		{
			"buffer":0,
			"byteLength":73968,
			"byteOffset":355552,
			"target":34963
		},
		{
			"buffer":0,
			"byteLength":2340,
			"byteOffset":429520,
			"target":34962
		},
		{
			"buffer":0,
			"byteLength":2340,
			"byteOffset":431860,
			"target":34962
		},
		{
			"buffer":0,
			"byteLength":1560,
			"byteOffset":434200,
			"target":34962
		},
		{
			"buffer":0,
			"byteLength":1584,
			"byteOffset":435760,
			"target":34963
		},
		{
			"buffer":0,
			"byteLength":192,
			"byteOffset":437344,
			"target":34962
		},
		{
			"buffer":0,
			"byteLength":192,
			"byteOffset":437536,
			"target":34962
		},
		{
			"buffer":0,
			"byteLength":128,
			"byteOffset":437728,
			"target":34962
		},
		{
			"buffer":0,
			"byteLength":48,
			"byteOffset":437856,
			"target":34963
		},
		{
			"buffer":0,
			"byteLength":2340,
			"byteOffset":437904,
			"target":34962
		},
		{
			"buffer":0,
			"byteLength":2340,
			"byteOffset":440244,
			"target":34962
		},
		{
			"buffer":0,
			"byteLength":1560,
			"byteOffset":442584,
			"target":34962
		},
		{
			"buffer":0,
			"byteLength":1584,
			"byteOffset":444144,
			"target":34963
		},
		{
			"buffer":0,
			"byteLength":2232,
			"byteOffset":445728,
			"target":34962
		},
		{
			"buffer":0,
			"byteLength":2232,
			"byteOffset":447960,
			"target":34962
		},
		{
			"buffer":0,
			"byteLength":1488,
			"byteOffset":450192,
			"target":34962
		},
		{
			"buffer":0,
			"byteLength":1104,
			"byteOffset":451680,
			"target":34963
		},
		{
			"buffer":0,
			"byteLength":1104,
			"byteOffset":452784,
			"target":34962
		},
		{
			"buffer":0,
			"byteLength":1104,
			"byteOffset":453888,
			"target":34962
		},
		{
			"buffer":0,
			"byteLength":736,
			"byteOffset":454992,
			"target":34962
		},
		{
			"buffer":0,
			"byteLength":540,
			"byteOffset":455728,
			"target":34963
		}
	],
	"samplers":[
		{
			"magFilter":9729,
			"minFilter":9987
		}
	],
	"buffers":[
		{
			"byteLength":456268,
			"uri":"SoccerField.bin"
		}
	]
}
