{
	"asset":{
		"generator":"Khronos glTF Blender I/O v4.3.47",
		"version":"2.0"
	},
	"scene":0,
	"scenes":[
		{
			"name":"Scene",
			"nodes":[
				0
			]
		}
	],
	"nodes":[
		{
			"mesh":0,
			"name":"SoccerBall",
			"rotation":[
				0.7071068286895752,
				0,
				0,
				0.7071068286895752
			]
		}
	],
	"materials":[
		{
			"doubleSided":true,
			"name":"White_s",
			"normalTexture":{
				"index":0
			},
			"pbrMetallicRoughness":{
				"baseColorFactor":[
					0.35153084993362427,
					0.00402467418462038,
					0.01680738478899002,
					1
				],
				"metallicFactor":0,
				"roughnessFactor":0.6900347471237183
			}
		},
		{
			"doubleSided":true,
			"name":"Black_s",
			"pbrMetallicRoughness":{
				"baseColorFactor":[
					0.0063738832250237465,
					0.0063738832250237465,
					0.0063738832250237465,
					1
				],
				"metallicFactor":0,
				"roughnessFactor":0.6900347471237183
			}
		}
	],
	"meshes":[
		{
			"name":"SoccerBall",
			"primitives":[
				{
					"attributes":{
						"POSITION":0,
						"NORMAL":1,
						"TEXCOORD_0":2
					},
					"indices":3,
					"material":0
				},
				{
					"attributes":{
						"POSITION":4,
						"NORMAL":5,
						"TEXCOORD_0":6
					},
					"indices":7,
					"material":1
				}
			]
		}
	],
	"textures":[
		{
			"sampler":0,
			"source":0
		}
	],
	"images":[
		{
			"mimeType":"image/png",
			"name":"Ball_White_s_Normal",
			"uri":"Ball_White_s_Normal.png"
		}
	],
	"accessors":[
		{
			"bufferView":0,
			"componentType":5126,
			"count":2286,
			"max":[
				0.5261359810829163,
				0.5221825242042542,
				0.48940399289131165
			],
			"min":[
				-0.5262855291366577,
				-0.5218374729156494,
				-0.4893609881401062
			],
			"type":"VEC3"
		},
		{
			"bufferView":1,
			"componentType":5126,
			"count":2286,
			"type":"VEC3"
		},
		{
			"bufferView":2,
			"componentType":5126,
			"count":2286,
			"type":"VEC2"
		},
		{
			"bufferView":3,
			"componentType":5123,
			"count":12492,
			"type":"SCALAR"
		},
		{
			"bufferView":4,
			"componentType":5126,
			"count":1666,
			"max":[
				0.5149719715118408,
				0.511886477470398,
				0.5282484889030457
			],
			"min":[
				-0.5151219964027405,
				-0.5115175247192383,
				-0.5281829833984375
			],
			"type":"VEC3"
		},
		{
			"bufferView":5,
			"componentType":5126,
			"count":1666,
			"type":"VEC3"
		},
		{
			"bufferView":6,
			"componentType":5126,
			"count":1666,
			"type":"VEC2"
		},
		{
			"bufferView":7,
			"componentType":5123,
			"count":8640,
			"type":"SCALAR"
		}
	],
	"bufferViews":[
		{
			"buffer":0,
			"byteLength":27432,
			"byteOffset":0,
			"target":34962
		},
		{
			"buffer":0,
			"byteLength":27432,
			"byteOffset":27432,
			"target":34962
		},
		{
			"buffer":0,
			"byteLength":18288,
			"byteOffset":54864,
			"target":34962
		},
		{
			"buffer":0,
			"byteLength":24984,
			"byteOffset":73152,
			"target":34963
		},
		{
			"buffer":0,
			"byteLength":19992,
			"byteOffset":98136,
			"target":34962
		},
		{
			"buffer":0,
			"byteLength":19992,
			"byteOffset":118128,
			"target":34962
		},
		{
			"buffer":0,
			"byteLength":13328,
			"byteOffset":138120,
			"target":34962
		},
		{
			"buffer":0,
			"byteLength":17280,
			"byteOffset":151448,
			"target":34963
		}
	],
	"samplers":[
		{
			"magFilter":9729,
			"minFilter":9987
		}
	],
	"buffers":[
		{
			"byteLength":168728,
			"uri":"soccerBall.bin"
		}
	]
}
