{
	"asset":{
		"generator":"Khronos glTF Blender I/O v4.3.47",
		"version":"2.0"
	},
	"scene":0,
	"scenes":[
		{
			"name":"Scene",
			"nodes":[
				0,
				1,
				2,
				3,
				4,
				5,
				6,
				7,
				8,
				9,
				10,
				11,
				12
			]
		}
	],
	"nodes":[
		{
			"mesh":0,
			"name":"FloorCollider",
			"translation":[
				0.02454853057861328,
				-2.4416017532348633,
				0.003421783447265625
			]
		},
		{
			"mesh":1,
			"name":"SideRightBottomCollider",
			"translation":[
				8.781360626220703,
				-0.1967310905456543,
				-0.05356311798095703
			]
		},
		{
			"mesh":2,
			"name":"SideLeftBottomCollider",
			"translation":[
				-8.710016250610352,
				-0.0848848819732666,
				-0.05356311798095703
			]
		},
		{
			"mesh":3,
			"name":"SideBackBottomCollider",
			"translation":[
				0.1551532745361328,
				-0.013381481170654297,
				14.298168182373047
			]
		},
		{
			"mesh":4,
			"name":"SideFrontBottomCollider",
			"translation":[
				0.1551532745361328,
				-0.013381481170654297,
				-14.28998851776123
			]
		},
		{
			"mesh":5,
			"name":"CornerABottomCollider",
			"translation":[
				-7.35845947265625,
				-0.1525564193725586,
				-13.169599533081055
			]
		},
		{
			"mesh":6,
			"name":"CornerBBottomCollider",
			"translation":[
				-7.425769805908203,
				-0.1525564193725586,
				13.062605857849121
			]
		},
		{
			"mesh":7,
			"name":"CornerCBottomCollider",
			"translation":[
				7.737418174743652,
				-0.1525564193725586,
				12.864063262939453
			]
		},
		{
			"mesh":8,
			"name":"CornerDBottomCollider",
			"translation":[
				7.411158561706543,
				-0.1525564193725586,
				-12.98084831237793
			]
		},
		{
			"mesh":9,
			"name":"SensorGate",
			"translation":[
				0.03862118721008301,
				-0.6913238763809204,
				-11.712785720825195
			]
		},
		{
			"mesh":10,
			"name":"GateColliderL",
			"translation":[
				-3.085761785507202,
				-0.5673660635948181,
				-11.712843894958496
			]
		},
		{
			"mesh":11,
			"name":"GateColliderR",
			"translation":[
				3.139069080352783,
				-0.5673660635948181,
				-11.712843894958496
			]
		},
		{
			"mesh":12,
			"name":"GateColliderT",
			"translation":[
				0.006159782409667969,
				0.5427988171577454,
				-11.712843894958496
			]
		}
	],
	"meshes":[
		{
			"name":"FloorCollider",
			"primitives":[
				{
					"attributes":{
						"POSITION":0,
						"NORMAL":1,
						"TEXCOORD_0":2
					},
					"indices":3
				}
			]
		},
		{
			"name":"SideRightBottomCollider",
			"primitives":[
				{
					"attributes":{
						"POSITION":4,
						"NORMAL":5,
						"TEXCOORD_0":6
					},
					"indices":7
				}
			]
		},
		{
			"name":"SideLeftBottomCollider",
			"primitives":[
				{
					"attributes":{
						"POSITION":8,
						"NORMAL":9,
						"TEXCOORD_0":10
					},
					"indices":11
				}
			]
		},
		{
			"name":"SideBackBottomCollider",
			"primitives":[
				{
					"attributes":{
						"POSITION":12,
						"NORMAL":13,
						"TEXCOORD_0":14
					},
					"indices":15
				}
			]
		},
		{
			"name":"SideFrontBottomCollider",
			"primitives":[
				{
					"attributes":{
						"POSITION":16,
						"NORMAL":17,
						"TEXCOORD_0":18
					},
					"indices":15
				}
			]
		},
		{
			"name":"CornerABottomCollider",
			"primitives":[
				{
					"attributes":{
						"POSITION":19,
						"NORMAL":20,
						"TEXCOORD_0":21
					},
					"indices":22
				}
			]
		},
		{
			"name":"CornerBBottomCollider",
			"primitives":[
				{
					"attributes":{
						"POSITION":23,
						"NORMAL":24,
						"TEXCOORD_0":25
					},
					"indices":26
				}
			]
		},
		{
			"name":"CornerCBottomCollider",
			"primitives":[
				{
					"attributes":{
						"POSITION":27,
						"NORMAL":28,
						"TEXCOORD_0":29
					},
					"indices":30
				}
			]
		},
		{
			"name":"CornerDBottomCollider",
			"primitives":[
				{
					"attributes":{
						"POSITION":31,
						"NORMAL":32,
						"TEXCOORD_0":33
					},
					"indices":34
				}
			]
		},
		{
			"name":"SensorGate",
			"primitives":[
				{
					"attributes":{
						"POSITION":35,
						"NORMAL":36,
						"TEXCOORD_0":37
					},
					"indices":11
				}
			]
		},
		{
			"name":"GateColliderL",
			"primitives":[
				{
					"attributes":{
						"POSITION":38,
						"NORMAL":39,
						"TEXCOORD_0":40
					},
					"indices":11
				}
			]
		},
		{
			"name":"GateColliderR",
			"primitives":[
				{
					"attributes":{
						"POSITION":41,
						"NORMAL":42,
						"TEXCOORD_0":43
					},
					"indices":11
				}
			]
		},
		{
			"name":"GateColliderT",
			"primitives":[
				{
					"attributes":{
						"POSITION":44,
						"NORMAL":45,
						"TEXCOORD_0":46
					},
					"indices":11
				}
			]
		}
	],
	"accessors":[
		{
			"bufferView":0,
			"componentType":5126,
			"count":48,
			"max":[
				7.524565696716309,
				0.6775457859039307,
				13.065789222717285
			],
			"min":[
				-7.524565696716309,
				-0.6775457859039307,
				-13.065789222717285
			],
			"type":"VEC3"
		},
		{
			"bufferView":1,
			"componentType":5126,
			"count":48,
			"type":"VEC3"
		},
		{
			"bufferView":2,
			"componentType":5126,
			"count":48,
			"type":"VEC2"
		},
		{
			"bufferView":3,
			"componentType":5123,
			"count":84,
			"type":"SCALAR"
		},
		{
			"bufferView":4,
			"componentType":5126,
			"count":24,
			"max":[
				1.226226806640625,
				1.5582308769226074,
				11.493997573852539
			],
			"min":[
				-1.2262263298034668,
				-1.5582308769226074,
				-11.493997573852539
			],
			"type":"VEC3"
		},
		{
			"bufferView":5,
			"componentType":5126,
			"count":24,
			"type":"VEC3"
		},
		{
			"bufferView":6,
			"componentType":5126,
			"count":24,
			"type":"VEC2"
		},
		{
			"bufferView":7,
			"componentType":5123,
			"count":36,
			"type":"SCALAR"
		},
		{
			"bufferView":8,
			"componentType":5126,
			"count":24,
			"max":[
				1.2262263298034668,
				1.6700770854949951,
				11.493997573852539
			],
			"min":[
				-1.226226806640625,
				-1.6700770854949951,
				-11.493997573852539
			],
			"type":"VEC3"
		},
		{
			"bufferView":9,
			"componentType":5126,
			"count":24,
			"type":"VEC3"
		},
		{
			"bufferView":10,
			"componentType":5126,
			"count":24,
			"type":"VEC2"
		},
		{
			"bufferView":11,
			"componentType":5123,
			"count":36,
			"type":"SCALAR"
		},
		{
			"bufferView":12,
			"componentType":5126,
			"count":24,
			"max":[
				6.035573959350586,
				1.7415804862976074,
				1.226226806640625
			],
			"min":[
				-6.035573959350586,
				-1.7415804862976074,
				-1.226226806640625
			],
			"type":"VEC3"
		},
		{
			"bufferView":13,
			"componentType":5126,
			"count":24,
			"type":"VEC3"
		},
		{
			"bufferView":14,
			"componentType":5126,
			"count":24,
			"type":"VEC2"
		},
		{
			"bufferView":15,
			"componentType":5123,
			"count":36,
			"type":"SCALAR"
		},
		{
			"bufferView":16,
			"componentType":5126,
			"count":24,
			"max":[
				6.035573959350586,
				1.7415804862976074,
				1.226226806640625
			],
			"min":[
				-6.035573959350586,
				-1.7415804862976074,
				-1.226226806640625
			],
			"type":"VEC3"
		},
		{
			"bufferView":17,
			"componentType":5126,
			"count":24,
			"type":"VEC3"
		},
		{
			"bufferView":18,
			"componentType":5126,
			"count":24,
			"type":"VEC2"
		},
		{
			"bufferView":19,
			"componentType":5126,
			"count":24,
			"max":[
				2.061138153076172,
				1.9801146984100342,
				2.0557031631469727
			],
			"min":[
				-2.061138153076172,
				-1.9801146984100342,
				-2.055704116821289
			],
			"type":"VEC3"
		},
		{
			"bufferView":20,
			"componentType":5126,
			"count":24,
			"type":"VEC3"
		},
		{
			"bufferView":21,
			"componentType":5126,
			"count":24,
			"type":"VEC2"
		},
		{
			"bufferView":22,
			"componentType":5123,
			"count":36,
			"type":"SCALAR"
		},
		{
			"bufferView":23,
			"componentType":5126,
			"count":24,
			"max":[
				2.0376763343811035,
				1.9588477611541748,
				2.035397529602051
			],
			"min":[
				-2.0376758575439453,
				-1.9588477611541748,
				-2.035397529602051
			],
			"type":"VEC3"
		},
		{
			"bufferView":24,
			"componentType":5126,
			"count":24,
			"type":"VEC3"
		},
		{
			"bufferView":25,
			"componentType":5126,
			"count":24,
			"type":"VEC2"
		},
		{
			"bufferView":26,
			"componentType":5123,
			"count":36,
			"type":"SCALAR"
		},
		{
			"bufferView":27,
			"componentType":5126,
			"count":24,
			"max":[
				2.1152076721191406,
				2.050734043121338,
				2.138896942138672
			],
			"min":[
				-2.1152076721191406,
				-2.050734043121338,
				-2.1388959884643555
			],
			"type":"VEC3"
		},
		{
			"bufferView":28,
			"componentType":5126,
			"count":24,
			"type":"VEC3"
		},
		{
			"bufferView":29,
			"componentType":5126,
			"count":24,
			"type":"VEC2"
		},
		{
			"bufferView":30,
			"componentType":5123,
			"count":36,
			"type":"SCALAR"
		},
		{
			"bufferView":31,
			"componentType":5126,
			"count":24,
			"max":[
				2.02443790435791,
				1.9486298561096191,
				2.0273284912109375
			],
			"min":[
				-2.02443790435791,
				-1.9486298561096191,
				-2.0273284912109375
			],
			"type":"VEC3"
		},
		{
			"bufferView":32,
			"componentType":5126,
			"count":24,
			"type":"VEC3"
		},
		{
			"bufferView":33,
			"componentType":5126,
			"count":24,
			"type":"VEC2"
		},
		{
			"bufferView":34,
			"componentType":5123,
			"count":36,
			"type":"SCALAR"
		},
		{
			"bufferView":35,
			"componentType":5126,
			"count":24,
			"max":[
				3.0073635578155518,
				1.29331374168396,
				0.8431262969970703
			],
			"min":[
				-3.0073635578155518,
				-1.2933136224746704,
				-0.8431262969970703
			],
			"type":"VEC3"
		},
		{
			"bufferView":36,
			"componentType":5126,
			"count":24,
			"type":"VEC3"
		},
		{
			"bufferView":37,
			"componentType":5126,
			"count":24,
			"type":"VEC2"
		},
		{
			"bufferView":38,
			"componentType":5126,
			"count":24,
			"max":[
				0.07096982002258301,
				1.369119644165039,
				1
			],
			"min":[
				-0.07096982002258301,
				-1.369119644165039,
				-1
			],
			"type":"VEC3"
		},
		{
			"bufferView":39,
			"componentType":5126,
			"count":24,
			"type":"VEC3"
		},
		{
			"bufferView":40,
			"componentType":5126,
			"count":24,
			"type":"VEC2"
		},
		{
			"bufferView":41,
			"componentType":5126,
			"count":24,
			"max":[
				0.06200528144836426,
				1.369119644165039,
				1
			],
			"min":[
				-0.06200551986694336,
				-1.369119644165039,
				-1
			],
			"type":"VEC3"
		},
		{
			"bufferView":42,
			"componentType":5126,
			"count":24,
			"type":"VEC3"
		},
		{
			"bufferView":43,
			"componentType":5126,
			"count":24,
			"type":"VEC2"
		},
		{
			"bufferView":44,
			"componentType":5126,
			"count":24,
			"max":[
				3.1498801708221436,
				0.454675555229187,
				1
			],
			"min":[
				-3.1498801708221436,
				-0.454675555229187,
				-1
			],
			"type":"VEC3"
		},
		{
			"bufferView":45,
			"componentType":5126,
			"count":24,
			"type":"VEC3"
		},
		{
			"bufferView":46,
			"componentType":5126,
			"count":24,
			"type":"VEC2"
		}
	],
	"bufferViews":[
		{
			"buffer":0,
			"byteLength":576,
			"byteOffset":0,
			"target":34962
		},
		{
			"buffer":0,
			"byteLength":576,
			"byteOffset":576,
			"target":34962
		},
		{
			"buffer":0,
			"byteLength":384,
			"byteOffset":1152,
			"target":34962
		},
		{
			"buffer":0,
			"byteLength":168,
			"byteOffset":1536,
			"target":34963
		},
		{
			"buffer":0,
			"byteLength":288,
			"byteOffset":1704,
			"target":34962
		},
		{
			"buffer":0,
			"byteLength":288,
			"byteOffset":1992,
			"target":34962
		},
		{
			"buffer":0,
			"byteLength":192,
			"byteOffset":2280,
			"target":34962
		},
		{
			"buffer":0,
			"byteLength":72,
			"byteOffset":2472,
			"target":34963
		},
		{
			"buffer":0,
			"byteLength":288,
			"byteOffset":2544,
			"target":34962
		},
		{
			"buffer":0,
			"byteLength":288,
			"byteOffset":2832,
			"target":34962
		},
		{
			"buffer":0,
			"byteLength":192,
			"byteOffset":3120,
			"target":34962
		},
		{
			"buffer":0,
			"byteLength":72,
			"byteOffset":3312,
			"target":34963
		},
		{
			"buffer":0,
			"byteLength":288,
			"byteOffset":3384,
			"target":34962
		},
		{
			"buffer":0,
			"byteLength":288,
			"byteOffset":3672,
			"target":34962
		},
		{
			"buffer":0,
			"byteLength":192,
			"byteOffset":3960,
			"target":34962
		},
		{
			"buffer":0,
			"byteLength":72,
			"byteOffset":4152,
			"target":34963
		},
		{
			"buffer":0,
			"byteLength":288,
			"byteOffset":4224,
			"target":34962
		},
		{
			"buffer":0,
			"byteLength":288,
			"byteOffset":4512,
			"target":34962
		},
		{
			"buffer":0,
			"byteLength":192,
			"byteOffset":4800,
			"target":34962
		},
		{
			"buffer":0,
			"byteLength":288,
			"byteOffset":4992,
			"target":34962
		},
		{
			"buffer":0,
			"byteLength":288,
			"byteOffset":5280,
			"target":34962
		},
		{
			"buffer":0,
			"byteLength":192,
			"byteOffset":5568,
			"target":34962
		},
		{
			"buffer":0,
			"byteLength":72,
			"byteOffset":5760,
			"target":34963
		},
		{
			"buffer":0,
			"byteLength":288,
			"byteOffset":5832,
			"target":34962
		},
		{
			"buffer":0,
			"byteLength":288,
			"byteOffset":6120,
			"target":34962
		},
		{
			"buffer":0,
			"byteLength":192,
			"byteOffset":6408,
			"target":34962
		},
		{
			"buffer":0,
			"byteLength":72,
			"byteOffset":6600,
			"target":34963
		},
		{
			"buffer":0,
			"byteLength":288,
			"byteOffset":6672,
			"target":34962
		},
		{
			"buffer":0,
			"byteLength":288,
			"byteOffset":6960,
			"target":34962
		},
		{
			"buffer":0,
			"byteLength":192,
			"byteOffset":7248,
			"target":34962
		},
		{
			"buffer":0,
			"byteLength":72,
			"byteOffset":7440,
			"target":34963
		},
		{
			"buffer":0,
			"byteLength":288,
			"byteOffset":7512,
			"target":34962
		},
		{
			"buffer":0,
			"byteLength":288,
			"byteOffset":7800,
			"target":34962
		},
		{
			"buffer":0,
			"byteLength":192,
			"byteOffset":8088,
			"target":34962
		},
		{
			"buffer":0,
			"byteLength":72,
			"byteOffset":8280,
			"target":34963
		},
		{
			"buffer":0,
			"byteLength":288,
			"byteOffset":8352,
			"target":34962
		},
		{
			"buffer":0,
			"byteLength":288,
			"byteOffset":8640,
			"target":34962
		},
		{
			"buffer":0,
			"byteLength":192,
			"byteOffset":8928,
			"target":34962
		},
		{
			"buffer":0,
			"byteLength":288,
			"byteOffset":9120,
			"target":34962
		},
		{
			"buffer":0,
			"byteLength":288,
			"byteOffset":9408,
			"target":34962
		},
		{
			"buffer":0,
			"byteLength":192,
			"byteOffset":9696,
			"target":34962
		},
		{
			"buffer":0,
			"byteLength":288,
			"byteOffset":9888,
			"target":34962
		},
		{
			"buffer":0,
			"byteLength":288,
			"byteOffset":10176,
			"target":34962
		},
		{
			"buffer":0,
			"byteLength":192,
			"byteOffset":10464,
			"target":34962
		},
		{
			"buffer":0,
			"byteLength":288,
			"byteOffset":10656,
			"target":34962
		},
		{
			"buffer":0,
			"byteLength":288,
			"byteOffset":10944,
			"target":34962
		},
		{
			"buffer":0,
			"byteLength":192,
			"byteOffset":11232,
			"target":34962
		}
	],
	"buffers":[
		{
			"byteLength":11424,
			"uri":"SoccerFieldColliders.bin"
		}
	]
}
