{
	"asset":{
		"generator":"Khronos glTF Blender I/O v4.3.47",
		"version":"2.0"
	},
	"extensionsUsed":[
		"KHR_materials_specular",
		"EXT_texture_webp"
	],
	"extensionsRequired":[
		"EXT_texture_webp"
	],
	"scene":0,
	"scenes":[
		{
			"name":"Scene",
			"nodes":[
				0,
				1,
				2,
				3
			]
		}
	],
	"nodes":[
		{
			"mesh":0,
			"name":"SoccerBall"
		},
		{
			"mesh":1,
			"name":"SoccerFence"
		},
		{
			"mesh":2,
			"name":"SoccerField"
		},
		{
			"mesh":3,
			"name":"SoccerGates"
		}
	],
	"materials":[
		{
			"doubleSided":true,
			"extensions":{
				"KHR_materials_specular":{
					"specularColorFactor":[
						2.0,
						2.0,
						2.0
					]
				}
			},
			"name":"SoccerballMaterial",
			"pbrMetallicRoughness":{
				"baseColorTexture":{
					"index":0
				},
				"roughnessFactor":0.5527864098548889
			}
		},
		{
			"doubleSided":true,
			"extensions":{
				"KHR_materials_specular":{
					"specularColorFactor":[
						2.0,
						2.0,
						2.0
					]
				}
			},
			"name":"SoccerFenceMaterial",
			"pbrMetallicRoughness":{
				"baseColorTexture":{
					"index":1
				},
				"roughnessFactor":0.5527864098548889
			}
		},
		{
			"doubleSided":true,
			"extensions":{
				"KHR_materials_specular":{
					"specularColorFactor":[
						2.0,
						2.0,
						2.0
					]
				}
			},
			"name":"soccerfield",
			"pbrMetallicRoughness":{
				"baseColorFactor":[
					0.2928089201450348,
					0.6603773832321167,
					0,
					1
				],
				"roughnessFactor":0.5527864098548889
			}
		},
		{
			"doubleSided":true,
			"extensions":{
				"KHR_materials_specular":{
					"specularColorFactor":[
						2.0,
						2.0,
						2.0
					]
				}
			},
			"name":"lines",
			"pbrMetallicRoughness":{
				"baseColorFactor":[
					0.9647059440612793,
					0.988235354423523,
					1,
					1
				],
				"roughnessFactor":0.5527864098548889
			}
		},
		{
			"doubleSided":true,
			"extensions":{
				"KHR_materials_specular":{
					"specularColorFactor":[
						2.0,
						2.0,
						2.0
					]
				}
			},
			"name":"orange",
			"pbrMetallicRoughness":{
				"baseColorFactor":[
					0.9150943160057068,
					0.5577035546302795,
					0.11654503643512726,
					1
				],
				"roughnessFactor":0.5527864098548889
			}
		},
		{
			"doubleSided":true,
			"extensions":{
				"KHR_materials_specular":{
					"specularColorFactor":[
						2.0,
						2.0,
						2.0
					]
				}
			},
			"name":"goalpadding_orange",
			"pbrMetallicRoughness":{
				"baseColorFactor":[
					1,
					0.5537366271018982,
					0.0896226167678833,
					1
				],
				"roughnessFactor":0.5527864098548889
			}
		},
		{
			"doubleSided":true,
			"extensions":{
				"KHR_materials_specular":{
					"specularColorFactor":[
						2.0,
						2.0,
						2.0
					]
				}
			},
			"name":"goal_orange",
			"pbrMetallicRoughness":{
				"baseColorFactor":[
					0.9137254953384399,
					0.6525850892066956,
					0.332596093416214,
					1
				],
				"roughnessFactor":0.5527864098548889
			}
		},
		{
			"doubleSided":true,
			"extensions":{
				"KHR_materials_specular":{
					"specularColorFactor":[
						2.0,
						2.0,
						2.0
					]
				}
			},
			"name":"blue",
			"pbrMetallicRoughness":{
				"baseColorFactor":[
					0.13725490868091583,
					0.6117647290229797,
					0.8274510502815247,
					1
				],
				"roughnessFactor":0.5527864098548889
			}
		},
		{
			"doubleSided":true,
			"extensions":{
				"KHR_materials_specular":{
					"specularColorFactor":[
						2.0,
						2.0,
						2.0
					]
				}
			},
			"name":"goalpadding_blue",
			"pbrMetallicRoughness":{
				"baseColorFactor":[
					0.004716992378234863,
					0.7266079187393188,
					1,
					1
				],
				"roughnessFactor":0.5527864098548889
			}
		},
		{
			"doubleSided":true,
			"extensions":{
				"KHR_materials_specular":{
					"specularColorFactor":[
						2.0,
						2.0,
						2.0
					]
				}
			},
			"name":"goal_blue",
			"pbrMetallicRoughness":{
				"baseColorFactor":[
					0.5937759876251221,
					0.8229548931121826,
					0.9440000057220459,
					1
				],
				"roughnessFactor":0.5527864098548889
			}
		},
		{
			"alphaMode":"BLEND",
			"doubleSided":true,
			"extensions":{
				"KHR_materials_specular":{
					"specularColorFactor":[
						2.0,
						2.0,
						2.0
					]
				}
			},
			"name":"SoccerGatesNetMaterial",
			"pbrMetallicRoughness":{
				"baseColorTexture":{
					"index":2
				}
			}
		}
	],
	"meshes":[
		{
			"name":"SoccerBall",
			"primitives":[
				{
					"attributes":{
						"POSITION":0,
						"NORMAL":1,
						"TEXCOORD_0":2
					},
					"indices":3,
					"material":0
				}
			]
		},
		{
			"name":"SoccerFence",
			"primitives":[
				{
					"attributes":{
						"POSITION":4,
						"NORMAL":5,
						"TEXCOORD_0":6
					},
					"indices":7,
					"material":1
				}
			]
		},
		{
			"name":"SoccerField",
			"primitives":[
				{
					"attributes":{
						"POSITION":8,
						"NORMAL":9,
						"TEXCOORD_0":10
					},
					"indices":11,
					"material":2
				},
				{
					"attributes":{
						"POSITION":12,
						"NORMAL":13,
						"TEXCOORD_0":14
					},
					"indices":15,
					"material":3
				},
				{
					"attributes":{
						"POSITION":16,
						"NORMAL":17,
						"TEXCOORD_0":18
					},
					"indices":19,
					"material":4
				},
				{
					"attributes":{
						"POSITION":20,
						"NORMAL":21,
						"TEXCOORD_0":22
					},
					"indices":23,
					"material":5
				},
				{
					"attributes":{
						"POSITION":24,
						"NORMAL":25,
						"TEXCOORD_0":26
					},
					"indices":27,
					"material":6
				},
				{
					"attributes":{
						"POSITION":28,
						"NORMAL":29,
						"TEXCOORD_0":30
					},
					"indices":31,
					"material":7
				},
				{
					"attributes":{
						"POSITION":32,
						"NORMAL":33,
						"TEXCOORD_0":34
					},
					"indices":35,
					"material":8
				},
				{
					"attributes":{
						"POSITION":36,
						"NORMAL":37,
						"TEXCOORD_0":38
					},
					"indices":39,
					"material":9
				}
			]
		},
		{
			"name":"SoccerGates",
			"primitives":[
				{
					"attributes":{
						"POSITION":40,
						"NORMAL":41,
						"TEXCOORD_0":42
					},
					"indices":43,
					"material":10
				}
			]
		}
	],
	"textures":[
		{
			"extensions":{
				"EXT_texture_webp":{
					"source":0
				}
			},
			"sampler":0
		},
		{
			"extensions":{
				"EXT_texture_webp":{
					"source":1
				}
			},
			"sampler":0
		},
		{
			"extensions":{
				"EXT_texture_webp":{
					"source":2
				}
			},
			"sampler":0
		}
	],
	"images":[
		{
			"mimeType":"image/webp",
			"name":"Soccerball",
			"uri":"Soccerball.webp"
		},
		{
			"mimeType":"image/webp",
			"name":"Fencepost2",
			"uri":"Fencepost2.webp"
		},
		{
			"mimeType":"image/webp",
			"name":"level10netting",
			"uri":"level10netting.webp"
		}
	],
	"accessors":[
		{
			"bufferView":0,
			"componentType":5126,
			"count":312,
			"max":[
				0.5170115828514099,
				0.5180710554122925,
				0.5294121503829956
			],
			"min":[
				-0.5313760638237,
				-0.5290459394454956,
				-0.5189752578735352
			],
			"type":"VEC3"
		},
		{
			"bufferView":1,
			"componentType":5126,
			"count":312,
			"type":"VEC3"
		},
		{
			"bufferView":2,
			"componentType":5126,
			"count":312,
			"type":"VEC2"
		},
		{
			"bufferView":3,
			"componentType":5123,
			"count":960,
			"type":"SCALAR"
		},
		{
			"bufferView":4,
			"componentType":5126,
			"count":2616,
			"max":[
				9.663983345031738,
				1.4314370155334473,
				14.809040069580078
			],
			"min":[
				-9.663983345031738,
				0.812314510345459,
				-14.809040069580078
			],
			"type":"VEC3"
		},
		{
			"bufferView":5,
			"componentType":5126,
			"count":2616,
			"type":"VEC3"
		},
		{
			"bufferView":6,
			"componentType":5126,
			"count":2616,
			"type":"VEC2"
		},
		{
			"bufferView":7,
			"componentType":5123,
			"count":7800,
			"type":"SCALAR"
		},
		{
			"bufferView":8,
			"componentType":5126,
			"count":208,
			"max":[
				8.241334915161133,
				-0.531017541885376,
				13.396010398864746
			],
			"min":[
				-8.241334915161133,
				-0.5910234451293945,
				-13.39600944519043
			],
			"type":"VEC3"
		},
		{
			"bufferView":9,
			"componentType":5126,
			"count":208,
			"type":"VEC3"
		},
		{
			"bufferView":10,
			"componentType":5126,
			"count":208,
			"type":"VEC2"
		},
		{
			"bufferView":11,
			"componentType":5123,
			"count":780,
			"type":"SCALAR"
		},
		{
			"bufferView":12,
			"componentType":5126,
			"count":215,
			"max":[
				8.241334915161133,
				-0.5310182571411133,
				13.699525833129883
			],
			"min":[
				-8.241334915161133,
				-0.6809306144714355,
				-13.69952392578125
			],
			"type":"VEC3"
		},
		{
			"bufferView":13,
			"componentType":5126,
			"count":215,
			"type":"VEC3"
		},
		{
			"bufferView":14,
			"componentType":5126,
			"count":215,
			"type":"VEC2"
		},
		{
			"bufferView":15,
			"componentType":5123,
			"count":672,
			"type":"SCALAR"
		},
		{
			"bufferView":16,
			"componentType":5126,
			"count":471,
			"max":[
				9.778892517089844,
				0.8460664749145508,
				14.912049293518066
			],
			"min":[
				-9.778892517089844,
				-2.575012445449829,
				4.1161780472975806e-07
			],
			"type":"VEC3"
		},
		{
			"bufferView":17,
			"componentType":5126,
			"count":471,
			"type":"VEC3"
		},
		{
			"bufferView":18,
			"componentType":5126,
			"count":471,
			"type":"VEC2"
		},
		{
			"bufferView":19,
			"componentType":5123,
			"count":1974,
			"type":"SCALAR"
		},
		{
			"bufferView":20,
			"componentType":5126,
			"count":102,
			"max":[
				2.184652090072632,
				3.2639336585998535,
				14.213869094848633
			],
			"min":[
				-2.184652090072632,
				2.43721866607666,
				13.387147903442383
			],
			"type":"VEC3"
		},
		{
			"bufferView":21,
			"componentType":5126,
			"count":102,
			"type":"VEC3"
		},
		{
			"bufferView":22,
			"componentType":5126,
			"count":102,
			"type":"VEC2"
		},
		{
			"bufferView":23,
			"componentType":5123,
			"count":372,
			"type":"SCALAR"
		},
		{
			"bufferView":24,
			"componentType":5126,
			"count":396,
			"max":[
				3.6387710571289062,
				3.169222354888916,
				16.64303970336914
			],
			"min":[
				-3.6387710571289062,
				-2.6198410987854004,
				13.494114875793457
			],
			"type":"VEC3"
		},
		{
			"bufferView":25,
			"componentType":5126,
			"count":396,
			"type":"VEC3"
		},
		{
			"bufferView":26,
			"componentType":5126,
			"count":396,
			"type":"VEC2"
		},
		{
			"bufferView":27,
			"componentType":5123,
			"count":1740,
			"type":"SCALAR"
		},
		{
			"bufferView":28,
			"componentType":5126,
			"count":475,
			"max":[
				9.778892517089844,
				0.8460721969604492,
				1.0871494851016905e-06
			],
			"min":[
				-9.778892517089844,
				-2.5750112533569336,
				-14.91204833984375
			],
			"type":"VEC3"
		},
		{
			"bufferView":29,
			"componentType":5126,
			"count":475,
			"type":"VEC3"
		},
		{
			"bufferView":30,
			"componentType":5126,
			"count":475,
			"type":"VEC2"
		},
		{
			"bufferView":31,
			"componentType":5123,
			"count":1974,
			"type":"SCALAR"
		},
		{
			"bufferView":32,
			"componentType":5126,
			"count":102,
			"max":[
				2.184652090072632,
				3.2639389038085938,
				-13.38714599609375
			],
			"min":[
				-2.184652090072632,
				2.4372243881225586,
				-14.2138671875
			],
			"type":"VEC3"
		},
		{
			"bufferView":33,
			"componentType":5126,
			"count":102,
			"type":"VEC3"
		},
		{
			"bufferView":34,
			"componentType":5126,
			"count":102,
			"type":"VEC2"
		},
		{
			"bufferView":35,
			"componentType":5123,
			"count":372,
			"type":"SCALAR"
		},
		{
			"bufferView":36,
			"componentType":5126,
			"count":396,
			"max":[
				3.6387710571289062,
				3.1692280769348145,
				-13.494112014770508
			],
			"min":[
				-3.6387710571289062,
				-2.619839906692505,
				-16.64303970336914
			],
			"type":"VEC3"
		},
		{
			"bufferView":37,
			"componentType":5126,
			"count":396,
			"type":"VEC3"
		},
		{
			"bufferView":38,
			"componentType":5126,
			"count":396,
			"type":"VEC2"
		},
		{
			"bufferView":39,
			"componentType":5123,
			"count":1740,
			"type":"SCALAR"
		},
		{
			"bufferView":40,
			"componentType":5126,
			"count":168,
			"max":[
				3.2689852714538574,
				2.9275174140930176,
				16.492198944091797
			],
			"min":[
				-3.275031328201294,
				-2.538543939590454,
				-16.492197036743164
			],
			"type":"VEC3"
		},
		{
			"bufferView":41,
			"componentType":5126,
			"count":168,
			"type":"VEC3"
		},
		{
			"bufferView":42,
			"componentType":5126,
			"count":168,
			"type":"VEC2"
		},
		{
			"bufferView":43,
			"componentType":5123,
			"count":672,
			"type":"SCALAR"
		}
	],
	"bufferViews":[
		{
			"buffer":0,
			"byteLength":3744,
			"byteOffset":0,
			"target":34962
		},
		{
			"buffer":0,
			"byteLength":3744,
			"byteOffset":3744,
			"target":34962
		},
		{
			"buffer":0,
			"byteLength":2496,
			"byteOffset":7488,
			"target":34962
		},
		{
			"buffer":0,
			"byteLength":1920,
			"byteOffset":9984,
			"target":34963
		},
		{
			"buffer":0,
			"byteLength":31392,
			"byteOffset":11904,
			"target":34962
		},
		{
			"buffer":0,
			"byteLength":31392,
			"byteOffset":43296,
			"target":34962
		},
		{
			"buffer":0,
			"byteLength":20928,
			"byteOffset":74688,
			"target":34962
		},
		{
			"buffer":0,
			"byteLength":15600,
			"byteOffset":95616,
			"target":34963
		},
		{
			"buffer":0,
			"byteLength":2496,
			"byteOffset":111216,
			"target":34962
		},
		{
			"buffer":0,
			"byteLength":2496,
			"byteOffset":113712,
			"target":34962
		},
		{
			"buffer":0,
			"byteLength":1664,
			"byteOffset":116208,
			"target":34962
		},
		{
			"buffer":0,
			"byteLength":1560,
			"byteOffset":117872,
			"target":34963
		},
		{
			"buffer":0,
			"byteLength":2580,
			"byteOffset":119432,
			"target":34962
		},
		{
			"buffer":0,
			"byteLength":2580,
			"byteOffset":122012,
			"target":34962
		},
		{
			"buffer":0,
			"byteLength":1720,
			"byteOffset":124592,
			"target":34962
		},
		{
			"buffer":0,
			"byteLength":1344,
			"byteOffset":126312,
			"target":34963
		},
		{
			"buffer":0,
			"byteLength":5652,
			"byteOffset":127656,
			"target":34962
		},
		{
			"buffer":0,
			"byteLength":5652,
			"byteOffset":133308,
			"target":34962
		},
		{
			"buffer":0,
			"byteLength":3768,
			"byteOffset":138960,
			"target":34962
		},
		{
			"buffer":0,
			"byteLength":3948,
			"byteOffset":142728,
			"target":34963
		},
		{
			"buffer":0,
			"byteLength":1224,
			"byteOffset":146676,
			"target":34962
		},
		{
			"buffer":0,
			"byteLength":1224,
			"byteOffset":147900,
			"target":34962
		},
		{
			"buffer":0,
			"byteLength":816,
			"byteOffset":149124,
			"target":34962
		},
		{
			"buffer":0,
			"byteLength":744,
			"byteOffset":149940,
			"target":34963
		},
		{
			"buffer":0,
			"byteLength":4752,
			"byteOffset":150684,
			"target":34962
		},
		{
			"buffer":0,
			"byteLength":4752,
			"byteOffset":155436,
			"target":34962
		},
		{
			"buffer":0,
			"byteLength":3168,
			"byteOffset":160188,
			"target":34962
		},
		{
			"buffer":0,
			"byteLength":3480,
			"byteOffset":163356,
			"target":34963
		},
		{
			"buffer":0,
			"byteLength":5700,
			"byteOffset":166836,
			"target":34962
		},
		{
			"buffer":0,
			"byteLength":5700,
			"byteOffset":172536,
			"target":34962
		},
		{
			"buffer":0,
			"byteLength":3800,
			"byteOffset":178236,
			"target":34962
		},
		{
			"buffer":0,
			"byteLength":3948,
			"byteOffset":182036,
			"target":34963
		},
		{
			"buffer":0,
			"byteLength":1224,
			"byteOffset":185984,
			"target":34962
		},
		{
			"buffer":0,
			"byteLength":1224,
			"byteOffset":187208,
			"target":34962
		},
		{
			"buffer":0,
			"byteLength":816,
			"byteOffset":188432,
			"target":34962
		},
		{
			"buffer":0,
			"byteLength":744,
			"byteOffset":189248,
			"target":34963
		},
		{
			"buffer":0,
			"byteLength":4752,
			"byteOffset":189992,
			"target":34962
		},
		{
			"buffer":0,
			"byteLength":4752,
			"byteOffset":194744,
			"target":34962
		},
		{
			"buffer":0,
			"byteLength":3168,
			"byteOffset":199496,
			"target":34962
		},
		{
			"buffer":0,
			"byteLength":3480,
			"byteOffset":202664,
			"target":34963
		},
		{
			"buffer":0,
			"byteLength":2016,
			"byteOffset":206144,
			"target":34962
		},
		{
			"buffer":0,
			"byteLength":2016,
			"byteOffset":208160,
			"target":34962
		},
		{
			"buffer":0,
			"byteLength":1344,
			"byteOffset":210176,
			"target":34962
		},
		{
			"buffer":0,
			"byteLength":1344,
			"byteOffset":211520,
			"target":34963
		}
	],
	"samplers":[
		{
			"magFilter":9729,
			"minFilter":9987
		}
	],
	"buffers":[
		{
			"byteLength":212864,
			"uri":"soccerfield.bin"
		}
	]
}
